<svg version="1.1" id="Layer_1" xmlns="http://www.w3.org/2000/svg" xmlns:xlink="http://www.w3.org/1999/xlink" x="0px" y="0px"
	 width="100%" viewBox="0 0 500 220" enable-background="new 0 0 500 220" xml:space="preserve">
<path fill="#FFFEFE" opacity="1.000000" stroke="none" 
	d="
M337.000000,221.000000 
	C224.705490,221.000000 112.910988,221.000000 1.058242,221.000000 
	C1.058242,147.731003 1.058242,74.461929 1.058242,1.096434 
	C167.544464,1.096434 334.089020,1.096434 500.816772,1.096434 
	C500.816772,74.332962 500.816772,147.666443 500.816772,221.000000 
	C446.462006,221.000000 391.981018,221.000000 337.000000,221.000000 
M74.844948,172.723373 
	C74.952423,172.972336 75.136147,173.135361 75.582703,173.919022 
	C76.775139,175.948151 77.967583,177.977280 79.241402,180.679321 
	C83.134148,185.838303 87.026894,190.997269 91.082436,196.807404 
	C92.757141,198.860901 94.431854,200.914383 96.160873,203.647476 
	C97.715004,205.535797 99.269142,207.424118 101.035164,209.912735 
	C101.933762,210.791016 102.832367,211.669296 104.016205,213.124130 
	C106.010056,214.932953 108.003906,216.741776 109.997757,218.550613 
	C110.596741,218.359818 111.195717,218.169037 111.794701,217.978241 
	C111.794701,213.995056 111.794701,210.011856 112.063049,205.203949 
	C112.207031,201.118286 112.351021,197.032608 112.775772,192.113144 
	C112.766678,189.766312 112.757584,187.419464 112.923172,184.308212 
	C112.863762,183.531204 112.804352,182.754196 112.921051,181.060806 
	C112.874641,175.398300 112.828232,169.735794 112.947853,163.181839 
	C112.833450,160.777634 112.719048,158.373428 112.710106,155.073563 
	C112.151581,149.369873 111.593048,143.666168 111.230263,137.064377 
	C111.094391,133.700882 110.958519,130.337387 110.924065,126.077942 
	C110.641563,122.335426 110.359070,118.592918 110.202126,114.055214 
	C110.076935,112.711235 109.951752,111.367249 109.933777,109.107735 
	C109.728493,105.465668 109.523209,101.823601 109.603081,97.418541 
	C115.168846,81.452415 114.948425,80.051483 102.041298,72.907166 
	C98.499191,70.946556 97.072174,68.490356 97.247398,65.144127 
	C97.762711,55.303299 92.818939,50.060513 83.761993,47.710152 
	C80.720352,46.920818 78.784889,45.400455 78.768768,41.460403 
	C78.748016,36.392498 76.377129,31.814074 71.217545,30.127655 
	C66.061188,28.442291 60.666431,27.055862 55.288750,26.621889 
	C51.377174,26.306229 49.044601,25.197897 47.834145,21.540836 
	C45.869007,15.603736 41.237202,12.511752 35.458515,12.190403 
	C27.307089,11.737104 20.145197,9.972412 15.463540,1.960181 
	C14.922626,5.502790 14.549477,8.130622 14.116290,10.748521 
	C12.917138,17.995428 11.539851,25.222664 15.461702,32.189701 
	C15.897125,32.963211 15.678936,34.511738 15.174950,35.344360 
	C9.795821,44.231064 9.959443,48.765209 16.643150,57.352440 
	C18.299959,59.481102 18.826723,61.131470 18.292313,63.992508 
	C17.185484,69.918068 16.859430,76.170944 22.892162,80.180359 
	C25.962954,82.221245 26.108143,84.449829 25.002153,87.756233 
	C22.875797,94.113060 20.774572,101.008041 25.621498,106.820473 
	C29.440855,111.400642 34.474628,114.968132 39.284962,119.522095 
	C40.085960,121.705223 40.886955,123.888351 41.782089,126.786407 
	C42.335773,127.848083 42.889454,128.909760 43.551601,130.543869 
	C44.529503,131.753693 45.507401,132.963516 46.707203,134.838989 
	C47.998432,136.650162 49.289665,138.461334 50.760052,140.908112 
	C51.858768,142.194870 52.957485,143.481628 54.272354,145.313110 
	C54.587517,145.535477 54.902679,145.757843 55.367531,146.600967 
	C56.567593,148.072723 57.767654,149.544479 59.171425,151.667038 
	C61.034924,154.153122 62.898422,156.639206 64.919205,159.738449 
	C65.582848,160.529022 66.246483,161.319580 67.032326,162.745560 
	C68.574890,164.543869 70.117455,166.342194 71.849258,168.788788 
	C72.824112,169.976242 73.798965,171.163681 74.844948,172.723373 
M424.994354,127.994987 
	C424.994354,127.994987 424.967651,127.969292 425.240387,128.826813 
	C425.518250,132.137436 425.316895,135.588760 426.233856,138.711731 
	C426.902069,140.987579 428.745636,144.096085 430.608978,144.537369 
	C432.809967,145.058624 436.258698,143.774292 437.972198,142.071121 
	C440.477448,139.581009 442.087219,136.108688 443.762421,132.890381 
	C445.108917,130.303558 445.986084,127.472435 447.419586,123.876656 
	C448.012726,127.254906 447.928223,129.867783 448.963654,131.913879 
	C450.363586,134.680222 452.238892,138.500778 454.621368,139.116302 
	C457.075714,139.750381 461.337189,137.860046 463.114349,135.688324 
	C466.522339,131.523682 468.882965,126.453835 471.318237,121.579735 
	C471.838501,120.538559 470.825012,118.731041 470.518097,117.276550 
	C469.389984,118.174835 467.898865,118.853836 467.199677,120.011238 
	C464.803833,123.977051 462.872375,128.231537 460.357727,132.112854 
	C459.510284,133.420883 457.263702,134.837311 455.999939,134.571533 
	C454.768402,134.312531 453.348999,132.063797 453.107544,130.517609 
	C452.366302,125.770615 452.359558,120.909637 451.633972,116.159157 
	C451.314606,114.068062 449.948608,112.136833 449.057831,110.133011 
	C447.778503,111.817352 446.085266,113.328217 445.293701,115.216972 
	C442.343262,122.256798 439.852234,129.492340 436.788208,136.478760 
	C436.159668,137.911972 433.802948,138.587250 432.242798,139.611893 
	C431.457977,137.938858 430.025085,136.278442 429.992218,134.590759 
	C429.757202,122.519852 432.894745,111.234573 438.545319,100.604782 
	C440.596222,96.746674 443.798187,95.081711 448.042297,95.739113 
	C451.995514,96.351456 452.632996,99.423347 453.023376,102.780266 
	C453.143799,103.815971 454.363922,104.723801 455.080505,105.690178 
	C455.726654,104.568115 456.882141,103.467522 456.930511,102.320259 
	C457.136261,97.437737 455.156219,93.426521 450.712891,91.241974 
	C446.014069,88.931831 440.868805,89.537682 438.076630,93.768646 
	C434.126129,99.754784 430.694519,106.337776 428.483185,113.134827 
	C426.785797,118.352142 424.024353,122.384598 420.348145,125.953552 
	C415.710663,130.455719 411.988708,129.624954 409.826599,123.575539 
	C408.496643,119.854507 408.108276,115.806847 407.053009,111.973045 
	C406.607086,110.352921 405.533264,108.905632 404.744812,107.379799 
	C403.443359,108.291298 401.786285,108.944916 400.904572,110.160797 
	C397.780579,114.468857 394.960266,118.995644 391.944794,123.384544 
	C390.531494,125.441582 388.935425,127.373055 387.422180,129.361435 
	C386.862946,129.115570 386.303711,128.869720 385.744446,128.623871 
	C387.024841,122.446182 388.401703,116.285995 389.527557,110.080276 
	C389.870728,108.188683 389.762878,106.122849 389.377930,104.235458 
	C389.216003,103.441460 387.868530,102.593002 386.924377,102.385101 
	C386.480865,102.287445 385.414978,103.552284 385.159851,104.365562 
	C384.616150,106.098732 384.183258,107.931602 384.116821,109.738754 
	C383.750732,119.701164 378.161072,127.167633 372.239532,134.383865 
	C371.083282,135.792938 368.677612,136.176804 366.848236,137.033524 
	C366.177185,135.291183 364.982819,133.559845 364.945984,131.804199 
	C364.873322,128.341766 365.406982,124.862328 365.755615,121.396545 
	C366.121063,117.763077 367.199768,114.057892 366.759613,110.534859 
	C366.440674,107.981979 364.646790,104.544136 362.576630,103.640411 
	C361.099823,102.995720 357.787628,105.593361 355.860443,107.361160 
	C354.941010,108.204529 355.338409,110.483429 355.139343,112.112099 
	C356.547913,111.707489 357.962799,111.323357 359.362427,110.889839 
	C360.091248,110.664085 360.793091,110.351265 362.134277,109.837570 
	C361.877014,112.517975 361.582733,114.615570 361.490723,116.722000 
	C361.202271,123.326019 360.189789,130.030014 360.972687,136.512314 
	C361.759827,143.029144 367.198486,144.769135 372.408997,140.619354 
	C375.862579,137.868835 378.621002,134.245407 381.589569,131.119171 
	C384.418091,137.106857 386.975586,137.448654 391.507385,131.813919 
	C393.688721,129.101715 395.459686,126.058868 397.408264,123.160248 
	C399.012512,120.773857 400.604645,118.379349 402.807861,115.081856 
	C403.871582,119.697197 404.410736,123.146637 405.473816,126.426224 
	C407.965851,134.113937 414.169647,136.053848 420.731750,131.359726 
	C422.203186,130.307144 423.591400,129.138168 424.994354,127.994987 
M168.490021,152.844772 
	C161.659378,152.845108 154.822784,152.696350 148.002991,152.968506 
	C146.597504,153.024582 145.254669,154.650299 143.882950,155.552567 
	C145.213959,156.335083 146.532104,157.769363 147.878021,157.795898 
	C157.704102,157.989670 167.547043,158.179001 177.360809,157.781235 
	C182.130630,157.587921 183.177872,159.518387 184.231277,163.750839 
	C186.542664,173.037537 189.431610,182.236176 192.893646,191.156845 
	C194.578964,195.499374 197.367325,194.994171 199.095810,191.538406 
	C191.303696,181.483856 190.245316,169.856155 187.587784,157.900909 
	C190.259109,157.900909 192.209991,157.900909 194.160873,157.900909 
	C242.810532,157.900909 291.460205,157.900772 340.109863,157.901031 
	C346.974945,157.901077 346.911682,157.913376 348.188568,164.985306 
	C348.599823,167.263092 348.993073,169.754135 350.205688,171.620605 
	C351.527802,173.655518 353.624481,176.050995 355.706909,176.409271 
	C356.988434,176.629761 359.601624,173.594025 360.340118,171.557358 
	C361.897430,167.262466 362.615509,162.663269 363.746338,157.900909 
	C365.636566,157.900909 367.450500,157.900925 369.264435,157.900909 
	C388.757629,157.900742 408.251038,157.849396 427.743774,157.945862 
	C431.413605,157.964020 433.153595,157.097382 431.466339,153.044876 
	C430.021729,152.973953 428.708923,152.854156 427.396088,152.853348 
	C407.736298,152.841232 388.076172,152.892136 368.417236,152.761200 
	C366.711151,152.749832 364.435730,152.038879 363.433136,150.822052 
	C361.449158,148.414200 360.668701,148.295288 358.815338,151.003494 
	C357.967377,152.242569 355.268036,152.686234 353.456238,152.589890 
	C352.584900,152.543579 351.205902,150.452469 351.116608,149.211090 
	C350.615295,142.241318 349.887970,135.219528 350.252289,128.268677 
	C351.305328,108.178398 352.642242,88.097153 354.280243,68.046059 
	C355.010834,59.102528 355.464813,58.862629 364.728394,59.055260 
	C373.092865,59.229198 381.438263,60.239857 389.804077,60.511307 
	C391.107666,60.553612 392.475372,58.621391 393.813416,57.602226 
	C392.749023,56.693821 391.741425,55.085804 390.610748,54.994038 
	C384.645294,54.509865 378.650604,54.325359 372.662598,54.197800 
	C367.238007,54.082237 361.808960,54.173374 356.024536,54.173374 
	C356.965668,48.115368 357.880066,42.067242 358.857330,36.029289 
	C359.188385,33.983536 360.083008,31.936361 359.949432,29.941441 
	C359.864044,28.665632 358.366455,27.484375 357.502014,26.260742 
	C356.706512,27.407686 355.433167,28.465582 355.199921,29.717287 
	C354.287323,34.614441 353.612152,39.561852 353.016083,44.510742 
	C351.725220,55.228611 351.739746,54.969440 341.011383,56.090477 
	C332.256012,57.005352 323.570740,58.612183 314.872498,60.023735 
	C313.863373,60.187492 312.667145,60.867401 312.137177,61.684067 
	C311.822510,62.169044 312.468567,64.040268 312.978973,64.176270 
	C316.788757,65.191490 320.647797,66.250038 324.548889,66.551582 
	C325.675964,66.638702 326.970154,64.278694 328.230225,63.085442 
	C328.675568,62.663712 329.218414,62.128460 329.765991,62.064171 
	C336.448364,61.279602 343.139954,60.573166 349.312225,59.902622 
	C347.864380,91.077919 346.447998,121.576065 345.004791,152.651794 
	C344.314209,152.685745 342.697144,152.834290 341.079987,152.834686 
	C291.430664,152.846985 241.781189,152.789200 192.132401,152.948151 
	C188.072769,152.961151 186.401138,151.652008 186.156235,147.838699 
	C185.484573,137.380173 184.682480,126.928932 184.146774,116.463821 
	C184.050446,114.582497 184.784897,112.576836 185.465073,110.751266 
	C189.004623,101.251045 193.642838,92.031357 196.015442,82.256897 
	C199.175934,69.236595 200.825241,55.824478 202.563095,42.507519 
	C202.866104,40.185619 201.036102,36.255871 199.078644,35.263664 
	C195.697327,33.549709 193.200546,36.660275 191.856247,39.652946 
	C190.024139,43.731537 188.217377,47.900398 187.112808,52.213184 
	C182.473099,70.328651 180.275757,88.784294 179.868027,107.479912 
	C179.817062,109.817513 178.830261,112.215561 177.895828,114.424309 
	C177.284439,115.869438 175.985580,117.023735 174.994644,118.308304 
	C176.542694,119.378639 178.090759,120.448975 179.610306,121.499596 
	C180.369537,131.649979 181.144135,142.005890 181.954849,152.844528 
	C177.426956,152.844528 173.456223,152.844528 168.490021,152.844772 
M333.990387,129.546219 
	C336.140900,127.226204 338.488831,125.049553 340.334320,122.508064 
	C340.976379,121.623856 340.376007,119.837463 340.343079,118.463097 
	C339.222748,118.884949 337.836334,119.026962 337.037323,119.786743 
	C335.359650,121.381981 334.093201,123.401115 332.476440,125.070450 
	C326.867889,130.861359 322.744812,129.876175 320.471100,122.042168 
	C319.363831,118.227020 318.956573,114.213150 317.990692,110.349686 
	C317.714264,109.244186 316.770386,107.973381 315.787323,107.508743 
	C315.248840,107.254211 313.723633,108.323128 313.101868,109.142990 
	C310.592377,112.452019 308.222168,115.869583 305.875275,119.298241 
	C303.514160,122.747749 301.241760,126.257980 298.930511,129.741623 
	C298.511902,129.551804 298.093323,129.361984 297.674744,129.172180 
	C297.925934,126.061623 297.978058,122.918747 298.476685,119.848389 
	C299.160370,115.638336 300.467926,111.513359 300.913177,107.289207 
	C301.080261,105.704277 299.580963,103.943695 298.841431,102.263191 
	C297.876129,103.704582 296.212769,105.075424 296.058838,106.598801 
	C295.054871,116.534058 290.786407,124.707008 283.424927,131.309998 
	C279.166229,135.129883 273.542877,136.366821 270.095154,134.447433 
	C266.527649,132.461380 264.543304,126.761169 265.479248,121.253189 
	C272.046143,119.696121 277.595459,116.581047 281.309448,110.808098 
	C284.079590,106.502289 283.711884,100.039230 280.775879,97.869484 
	C278.002777,95.820114 272.719299,97.006721 269.046600,100.619675 
	C267.869934,101.777214 266.560181,103.010254 265.930664,104.474945 
	C263.780182,109.478432 261.724304,114.538689 259.968506,119.691833 
	C257.456390,127.064735 256.160980,135.001846 250.025101,140.587585 
	C249.063919,141.462601 247.391357,141.985947 246.114243,141.878860 
	C245.581482,141.834183 244.737839,139.658890 244.866074,138.548248 
	C245.531250,132.786774 246.330124,127.032402 247.343002,121.321777 
	C248.328812,115.763657 249.933990,110.298859 250.621246,104.713593 
	C250.851639,102.841232 249.595016,99.773750 248.103928,98.988594 
	C246.635864,98.215569 243.922531,99.417702 241.922424,100.186958 
	C240.668106,100.669365 239.721649,101.952194 238.004761,103.414383 
	C238.289383,100.896095 239.040604,99.058571 238.524033,97.704834 
	C237.727203,95.616615 236.458481,92.932793 234.676239,92.170746 
	C231.702911,90.899429 229.390762,93.250931 229.028870,96.141968 
	C228.611008,99.480087 228.431961,103.120621 229.334961,106.292236 
	C230.981476,112.075211 225.400970,122.454292 220.520691,123.374184 
	C219.052353,117.638458 218.468750,111.563835 215.949310,106.441353 
	C212.506821,99.442131 205.741577,98.670334 199.563477,103.409424 
	C192.981918,108.458000 191.341293,116.864281 195.595840,122.249748 
	C196.898148,123.898254 197.718109,126.169357 198.077667,128.271866 
	C198.875595,132.937729 197.991089,138.846176 203.607697,140.567078 
	C209.532974,142.382507 212.261841,137.135925 215.262100,133.102310 
	C216.457169,131.495621 218.031403,129.605942 219.794922,129.095535 
	C224.628265,127.696655 228.268661,125.227249 230.006699,120.435318 
	C232.853210,112.587166 239.207413,108.147812 246.701538,102.762619 
	C244.757278,110.783600 242.885757,117.483147 241.567017,124.289787 
	C240.625275,129.150558 240.188965,134.144684 239.970398,139.098846 
	C239.798218,143.001587 241.350616,146.499954 245.353256,147.789169 
	C249.254074,149.045593 251.623749,146.184311 253.546814,143.436829 
	C255.446152,140.723206 256.918091,137.709091 258.557892,134.815704 
	C259.307983,133.492218 260.011078,132.142090 261.211243,129.925247 
	C264.437500,137.996262 269.876343,142.050583 276.939423,139.585175 
	C282.831787,137.528397 287.819733,132.880630 292.432526,129.884247 
	C293.566986,131.433258 294.774567,134.709778 296.752808,135.271286 
	C298.352112,135.725250 301.354767,133.303268 302.891571,131.455597 
	C305.641144,128.149734 307.727966,124.297028 310.147949,120.710777 
	C311.268890,119.049591 312.521851,117.477455 314.250824,115.140739 
	C315.008514,118.892807 315.458069,121.476524 316.057556,124.024971 
	C318.514893,134.470718 325.237518,136.784027 333.990387,129.546219 
M138.661514,122.132805 
	C139.205536,113.168526 139.796783,104.206749 140.270370,95.238747 
	C140.460342,91.641426 141.709625,89.497704 145.753189,89.321999 
	C152.054382,89.048203 158.350220,88.498856 164.620972,87.815292 
	C165.782104,87.688721 166.813934,86.376137 167.905441,85.610931 
	C166.834000,84.821297 165.793808,83.414078 164.685272,83.357994 
	C161.379883,83.190781 158.042206,83.480530 154.727325,83.728073 
	C150.514664,84.042671 146.311966,84.490959 141.144302,84.970810 
	C142.929321,68.833893 144.538177,53.502625 146.472931,38.212597 
	C146.637222,36.914219 148.832626,35.146355 150.329071,34.855598 
	C165.042206,31.996868 179.858673,29.979643 194.915680,30.834162 
	C196.572617,30.928196 198.250443,31.423784 199.865738,31.247883 
	C201.258377,31.096231 202.575684,30.252670 203.926285,29.715012 
	C202.899139,28.778484 201.998978,27.287180 200.819275,27.017170 
	C198.090286,26.392563 195.179703,25.890862 192.424042,26.162840 
	C175.399048,27.843170 158.253708,28.938435 141.440506,31.891447 
	C131.460602,33.644283 121.903290,38.168926 112.403397,42.052532 
	C109.764603,43.131290 107.406219,46.076698 106.102661,48.744083 
	C105.448410,50.082832 106.927696,53.800037 108.381577,54.505535 
	C110.334061,55.452980 113.195374,54.527515 115.666542,54.406059 
	C114.557983,52.819763 113.435768,51.242664 112.355171,49.637547 
	C112.187744,49.388870 112.210861,49.011921 112.057465,48.262356 
	C121.005470,42.445362 130.722900,38.465782 141.362137,36.802849 
	C140.174316,49.975960 138.756744,62.508598 138.016708,75.081116 
	C137.561096,82.821533 135.989639,88.980095 126.823090,89.797272 
	C126.039520,89.867119 125.126167,90.270576 124.580772,90.822868 
	C123.655258,91.760101 122.974991,92.939507 122.191643,94.017128 
	C123.598877,94.303703 125.129433,95.089233 126.388885,94.777924 
	C129.461777,94.018356 132.409119,92.750877 135.836761,91.535500 
	C135.836761,93.978691 135.964020,95.468979 135.817780,96.931915 
	C133.397385,121.143280 132.393539,145.387329 135.209839,169.613235 
	C135.809631,174.772629 137.930298,179.797394 139.761093,184.731766 
	C140.082016,185.596741 142.447281,185.703232 143.868393,186.160004 
	C143.925247,184.715530 144.360443,183.153336 143.955704,181.852478 
	C143.238495,179.547287 141.628540,177.494812 141.058121,175.172989 
	C136.834106,157.979752 137.700073,140.514267 138.661514,122.132805 
z"/>
<path fill="#EB7FA6" opacity="1.000000" stroke="none" 
	d="
M38.968998,118.985420 
	C34.474628,114.968132 29.440855,111.400642 25.621498,106.820473 
	C20.774572,101.008041 22.875797,94.113060 25.002153,87.756233 
	C26.108143,84.449829 25.962954,82.221245 22.892162,80.180359 
	C16.859430,76.170944 17.185484,69.918068 18.292313,63.992508 
	C18.826723,61.131470 18.299959,59.481102 16.643150,57.352440 
	C9.959443,48.765209 9.795821,44.231064 15.174950,35.344360 
	C15.678936,34.511738 15.897125,32.963211 15.461702,32.189701 
	C11.539851,25.222664 12.917138,17.995428 14.116290,10.748521 
	C14.549477,8.130622 14.922626,5.502790 15.463540,1.960181 
	C20.145197,9.972412 27.307089,11.737104 35.458515,12.190403 
	C41.237202,12.511752 45.869007,15.603736 47.834145,21.540836 
	C49.044601,25.197897 51.377174,26.306229 55.288750,26.621889 
	C60.666431,27.055862 66.061188,28.442291 71.217545,30.127655 
	C76.377129,31.814074 78.748016,36.392498 78.768768,41.460403 
	C78.784889,45.400455 80.720352,46.920818 83.761993,47.710152 
	C92.818939,50.060513 97.762711,55.303299 97.247398,65.144127 
	C97.072174,68.490356 98.499191,70.946556 102.041298,72.907166 
	C114.948425,80.051483 115.168846,81.452415 109.189316,97.852402 
	C107.503746,99.454758 106.231949,100.623260 104.612228,101.863724 
	C99.568703,106.220589 94.150726,108.734421 87.701370,108.930893 
	C86.446091,108.969139 85.208824,109.598900 83.592331,109.945755 
	C79.257240,110.957108 76.274261,112.731239 75.846321,117.453438 
	C75.643776,119.688431 75.023590,122.878380 73.493103,123.790283 
	C70.454048,125.601013 69.026390,122.305473 67.477814,120.218620 
	C67.084274,119.688286 66.602386,119.223503 66.066315,118.373688 
	C64.644485,117.681892 63.317425,117.345009 61.564247,116.948853 
	C60.482670,116.893372 59.809639,116.800484 59.174454,116.915886 
	C52.625790,118.105629 46.200706,121.272530 39.374256,118.132523 
	C39.370697,118.130882 39.109726,118.688866 38.968998,118.985420 
M68.930832,105.547112 
	C70.446243,104.735794 71.961647,103.924469 74.634430,102.493515 
	C72.584694,102.185020 71.950378,101.913177 71.401482,102.032906 
	C59.682491,104.589272 48.888466,101.028412 38.026463,97.343964 
	C36.173733,96.715515 33.705837,97.900620 31.522133,98.247902 
	C31.944395,100.235344 31.832903,102.607765 32.920338,104.115440 
	C34.368679,106.123512 36.514847,107.984825 38.770710,108.992821 
	C49.114784,113.614868 58.720135,109.768318 68.930832,105.547112 
M36.505146,70.978676 
	C35.841122,70.951538 35.166294,70.835388 34.515160,70.914429 
	C32.764957,71.126892 31.024879,71.422752 29.280781,71.685501 
	C29.967777,73.410568 30.312893,75.399673 31.404095,76.812569 
	C35.085293,81.579018 40.732578,81.914291 45.840656,81.372787 
	C53.190094,80.593658 60.416000,78.597847 67.670052,77.009102 
	C69.335068,76.644432 70.900070,75.823097 72.511101,75.211929 
	C72.466026,74.713379 72.420952,74.214836 72.375870,73.716293 
	C60.659142,73.195213 48.634361,75.622627 36.505146,70.978676 
M91.707466,78.793152 
	C83.953598,79.973167 76.181541,81.049698 68.458992,82.407791 
	C66.587341,82.736946 64.879005,83.994698 62.553131,85.078125 
	C67.670807,87.841736 93.854645,88.110649 105.092758,84.909210 
	C100.884468,82.934807 96.676170,80.960403 91.707466,78.793152 
M69.883369,58.539536 
	C76.131371,58.539536 82.379372,58.539536 88.627373,58.539536 
	C88.806984,57.896656 88.986603,57.253780 89.166214,56.610901 
	C85.345116,55.080967 81.596718,52.525845 77.686783,52.248531 
	C70.916817,51.768368 64.042122,52.636047 57.225170,53.129299 
	C56.471581,53.183823 55.808010,54.482407 55.102695,55.204018 
	C55.998859,56.057785 56.798496,57.493752 57.808445,57.661198 
	C61.524590,58.277317 65.310463,58.472858 69.883369,58.539536 
M21.971684,51.522099 
	C23.940517,52.626278 26.170012,54.972374 27.833801,54.623173 
	C35.723206,52.967300 43.459110,50.579098 51.238869,48.412888 
	C51.335155,48.386078 51.288982,47.847610 51.347080,46.990967 
	C49.191891,46.990967 47.068932,47.147732 44.976311,46.962234 
	C38.078587,46.350788 31.197872,45.542137 24.296995,44.975105 
	C22.375032,44.817177 20.405895,45.233341 18.458401,45.386131 
	C19.451715,47.261639 20.445030,49.137150 21.971684,51.522099 
M62.019207,32.028042 
	C56.439289,32.359417 50.846684,32.564308 45.289425,33.121624 
	C44.079285,33.242989 42.995617,34.625450 41.853703,35.427090 
	C42.094971,36.007069 42.336239,36.587044 42.577511,37.167023 
	C52.231907,37.167023 61.886299,37.167023 71.540695,37.167023 
	C71.689606,36.751797 71.838509,36.336567 71.987419,35.921341 
	C68.953850,34.657021 65.920273,33.392700 62.019207,32.028042 
M35.921951,22.827719 
	C38.735046,23.159115 41.548138,23.490511 45.706047,23.980331 
	C39.417858,17.848747 33.860634,13.835922 25.983179,15.487024 
	C24.646702,15.767148 23.380299,16.381577 22.081520,16.841557 
	C23.080353,17.947952 23.882519,19.624439 25.116211,20.050030 
	C28.354490,21.167141 31.780813,21.739166 35.921951,22.827719 
M33.763397,31.212090 
	C35.018055,30.939497 36.272713,30.666903 38.709694,30.137430 
	C31.064791,28.449484 24.850981,27.077515 17.889923,25.540558 
	C18.424438,27.098249 18.589039,28.714924 19.426329,29.823553 
	C23.304766,34.958889 28.207321,33.006580 33.763397,31.212090 
M54.406555,46.486771 
	C54.406555,46.486771 54.517200,46.421803 54.406555,46.486771 
z"/>
<path fill="#F175A1" opacity="1.000000" stroke="none" 
	d="
M168.987762,152.844650 
	C173.456223,152.844528 177.426956,152.844528 181.954849,152.844528 
	C181.144135,142.005890 180.369537,131.649979 179.610306,121.499596 
	C178.090759,120.448975 176.542694,119.378639 174.994644,118.308304 
	C175.985580,117.023735 177.284439,115.869438 177.895828,114.424309 
	C178.830261,112.215561 179.817062,109.817513 179.868027,107.479912 
	C180.275757,88.784294 182.473099,70.328651 187.112808,52.213184 
	C188.217377,47.900398 190.024139,43.731537 191.856247,39.652946 
	C193.200546,36.660275 195.697327,33.549709 199.078644,35.263664 
	C201.036102,36.255871 202.866104,40.185619 202.563095,42.507519 
	C200.825241,55.824478 199.175934,69.236595 196.015442,82.256897 
	C193.642838,92.031357 189.004623,101.251045 185.465073,110.751266 
	C184.784897,112.576836 184.050446,114.582497 184.146774,116.463821 
	C184.682480,126.928932 185.484573,137.380173 186.156235,147.838699 
	C186.401138,151.652008 188.072769,152.961151 192.132401,152.948151 
	C241.781189,152.789200 291.430664,152.846985 341.079987,152.834686 
	C342.697144,152.834290 344.314209,152.685745 345.004791,152.651794 
	C346.447998,121.576065 347.864380,91.077919 349.312225,59.902622 
	C343.139954,60.573166 336.448364,61.279602 329.765991,62.064171 
	C329.218414,62.128460 328.675568,62.663712 328.230225,63.085442 
	C326.970154,64.278694 325.675964,66.638702 324.548889,66.551582 
	C320.647797,66.250038 316.788757,65.191490 312.978973,64.176270 
	C312.468567,64.040268 311.822510,62.169044 312.137177,61.684067 
	C312.667145,60.867401 313.863373,60.187492 314.872498,60.023735 
	C323.570740,58.612183 332.256012,57.005352 341.011383,56.090477 
	C351.739746,54.969440 351.725220,55.228611 353.016083,44.510742 
	C353.612152,39.561852 354.287323,34.614441 355.199921,29.717287 
	C355.433167,28.465582 356.706512,27.407686 357.502014,26.260736 
	C358.366455,27.484375 359.864044,28.665632 359.949432,29.941441 
	C360.083008,31.936361 359.188385,33.983536 358.857330,36.029289 
	C357.880066,42.067242 356.965668,48.115368 356.024536,54.173374 
	C361.808960,54.173374 367.238007,54.082237 372.662598,54.197800 
	C378.650604,54.325359 384.645294,54.509865 390.610748,54.994038 
	C391.741425,55.085804 392.749023,56.693821 393.813416,57.602226 
	C392.475372,58.621391 391.107666,60.553612 389.804077,60.511307 
	C381.438263,60.239857 373.092865,59.229198 364.728394,59.055260 
	C355.464813,58.862629 355.010834,59.102528 354.280243,68.046059 
	C352.642242,88.097153 351.305328,108.178398 350.252289,128.268677 
	C349.887970,135.219528 350.615295,142.241318 351.116608,149.211090 
	C351.205902,150.452469 352.584900,152.543579 353.456238,152.589890 
	C355.268036,152.686234 357.967377,152.242569 358.815338,151.003494 
	C360.668701,148.295288 361.449158,148.414200 363.433136,150.822052 
	C364.435730,152.038879 366.711151,152.749832 368.417236,152.761200 
	C388.076172,152.892136 407.736298,152.841232 427.396088,152.853348 
	C428.708923,152.854156 430.021729,152.973953 431.466339,153.044876 
	C433.153595,157.097382 431.413605,157.964020 427.743774,157.945862 
	C408.251038,157.849396 388.757629,157.900742 369.264435,157.900909 
	C367.450500,157.900925 365.636566,157.900909 363.746338,157.900909 
	C362.615509,162.663269 361.897430,167.262466 360.340118,171.557358 
	C359.601624,173.594025 356.988434,176.629761 355.706909,176.409271 
	C353.624481,176.050995 351.527802,173.655518 350.205688,171.620605 
	C348.993073,169.754135 348.599823,167.263092 348.188568,164.985306 
	C346.911682,157.913376 346.974945,157.901077 340.109863,157.901031 
	C291.460205,157.900772 242.810532,157.900909 194.160873,157.900909 
	C192.209991,157.900909 190.259109,157.900909 187.587784,157.900909 
	C190.245316,169.856155 191.303696,181.483856 199.095810,191.538406 
	C197.367325,194.994171 194.578964,195.499374 192.893646,191.156845 
	C189.431610,182.236176 186.542664,173.037537 184.231277,163.750839 
	C183.177872,159.518387 182.130630,157.587921 177.360809,157.781235 
	C167.547043,158.179001 157.704102,157.989670 147.878021,157.795898 
	C146.532104,157.769363 145.213959,156.335083 143.882950,155.552567 
	C145.254669,154.650299 146.597504,153.024582 148.002991,152.968506 
	C154.822784,152.696350 161.659378,152.845108 168.987762,152.844650 
M196.475540,60.898178 
	C197.114655,54.457569 197.753784,48.016956 198.498611,40.511070 
	C191.588348,45.671829 183.291382,85.924728 185.647598,98.882317 
	C191.073502,86.599518 194.270767,74.351265 196.475540,60.898178 
M358.062653,158.108459 
	C356.137848,158.108459 354.213043,158.108459 350.736298,158.108459 
	C352.383118,162.365173 353.667114,165.684128 354.951141,169.003067 
	C359.386993,166.963593 358.220184,162.723251 358.803406,159.173035 
	C358.828522,159.020355 358.739777,158.848953 358.062653,158.108459 
z"/>
<path fill="#F175A1" opacity="1.000000" stroke="none" 
	d="
M333.730286,129.797638 
	C325.237518,136.784027 318.514893,134.470718 316.057556,124.024971 
	C315.458069,121.476524 315.008514,118.892807 314.250824,115.140739 
	C312.521851,117.477455 311.268890,119.049591 310.147949,120.710777 
	C307.727966,124.297028 305.641144,128.149734 302.891571,131.455597 
	C301.354767,133.303268 298.352112,135.725250 296.752808,135.271286 
	C294.774567,134.709778 293.566986,131.433258 292.432526,129.884247 
	C287.819733,132.880630 282.831787,137.528397 276.939423,139.585175 
	C269.876343,142.050583 264.437500,137.996262 261.211243,129.925247 
	C260.011078,132.142090 259.307983,133.492218 258.557892,134.815704 
	C256.918091,137.709091 255.446152,140.723206 253.546814,143.436829 
	C251.623749,146.184311 249.254074,149.045593 245.353256,147.789169 
	C241.350616,146.499954 239.798218,143.001587 239.970398,139.098846 
	C240.188965,134.144684 240.625275,129.150558 241.567017,124.289787 
	C242.885757,117.483147 244.757278,110.783600 246.701538,102.762619 
	C239.207413,108.147812 232.853210,112.587166 230.006699,120.435318 
	C228.268661,125.227249 224.628265,127.696655 219.794922,129.095535 
	C218.031403,129.605942 216.457169,131.495621 215.262100,133.102310 
	C212.261841,137.135925 209.532974,142.382507 203.607697,140.567078 
	C197.991089,138.846176 198.875595,132.937729 198.077667,128.271866 
	C197.718109,126.169357 196.898148,123.898254 195.595840,122.249748 
	C191.341293,116.864281 192.981918,108.458000 199.563477,103.409424 
	C205.741577,98.670334 212.506821,99.442131 215.949310,106.441353 
	C218.468750,111.563835 219.052353,117.638458 220.520691,123.374184 
	C225.400970,122.454292 230.981476,112.075211 229.334961,106.292236 
	C228.431961,103.120621 228.611008,99.480087 229.028870,96.141968 
	C229.390762,93.250931 231.702911,90.899429 234.676239,92.170746 
	C236.458481,92.932793 237.727203,95.616615 238.524033,97.704834 
	C239.040604,99.058571 238.289383,100.896095 238.004761,103.414383 
	C239.721649,101.952194 240.668106,100.669365 241.922424,100.186958 
	C243.922531,99.417702 246.635864,98.215569 248.103928,98.988594 
	C249.595016,99.773750 250.851639,102.841232 250.621246,104.713593 
	C249.933990,110.298859 248.328812,115.763657 247.343002,121.321777 
	C246.330124,127.032402 245.531250,132.786774 244.866074,138.548248 
	C244.737839,139.658890 245.581482,141.834183 246.114243,141.878860 
	C247.391357,141.985947 249.063919,141.462601 250.025101,140.587585 
	C256.160980,135.001846 257.456390,127.064735 259.968506,119.691833 
	C261.724304,114.538689 263.780182,109.478432 265.930664,104.474945 
	C266.560181,103.010254 267.869934,101.777214 269.046600,100.619675 
	C272.719299,97.006721 278.002777,95.820114 280.775879,97.869484 
	C283.711884,100.039230 284.079590,106.502289 281.309448,110.808098 
	C277.595459,116.581047 272.046143,119.696121 265.479248,121.253189 
	C264.543304,126.761169 266.527649,132.461380 270.095154,134.447433 
	C273.542877,136.366821 279.166229,135.129883 283.424927,131.309998 
	C290.786407,124.707008 295.054871,116.534058 296.058838,106.598801 
	C296.212769,105.075424 297.876129,103.704582 298.841431,102.263199 
	C299.580963,103.943695 301.080261,105.704277 300.913177,107.289207 
	C300.467926,111.513359 299.160370,115.638336 298.476685,119.848389 
	C297.978058,122.918747 297.925934,126.061623 297.674744,129.172180 
	C298.093323,129.361984 298.511902,129.551804 298.930511,129.741623 
	C301.241760,126.257980 303.514160,122.747749 305.875275,119.298241 
	C308.222168,115.869583 310.592377,112.452019 313.101868,109.142990 
	C313.723633,108.323128 315.248840,107.254211 315.787323,107.508743 
	C316.770386,107.973381 317.714264,109.244186 317.990692,110.349686 
	C318.956573,114.213150 319.363831,118.227020 320.471100,122.042168 
	C322.744812,129.876175 326.867889,130.861359 332.476440,125.070450 
	C334.093201,123.401115 335.359650,121.381981 337.037323,119.786743 
	C337.836334,119.026962 339.222748,118.884949 340.343079,118.463104 
	C340.376007,119.837463 340.976379,121.623856 340.334320,122.508064 
	C338.488831,125.049553 336.140900,127.226204 333.730286,129.797638 
M198.401566,112.300293 
	C198.401566,114.568100 198.401566,116.835915 198.401566,120.107246 
	C200.876953,117.126015 202.182693,114.928024 204.079330,113.533974 
	C205.022888,112.840454 207.049927,113.621048 208.586853,113.734802 
	C207.985809,114.857735 207.437805,116.013336 206.771057,117.095818 
	C205.811081,118.654411 204.764786,120.159843 203.371460,122.269058 
	C207.329971,123.264915 210.321045,124.017395 214.376434,125.037628 
	C214.552444,121.538605 215.117569,118.466888 214.730438,115.520302 
	C214.396591,112.979256 213.422699,110.267487 211.951736,108.181160 
	C208.356583,103.081932 203.389008,104.469872 198.401566,112.300293 
M275.097778,111.590660 
	C276.312988,109.861259 277.858459,108.262558 278.614777,106.351555 
	C279.041962,105.272102 278.511292,103.411377 277.740082,102.431366 
	C277.360779,101.949318 275.129944,102.257484 274.292664,102.915314 
	C270.163818,106.159294 266.539490,109.836807 265.880371,117.022163 
	C269.394897,115.019730 271.972168,113.551323 275.097778,111.590660 
M203.014328,128.852219 
	C203.822052,130.927338 204.629761,133.002457 205.437485,135.077560 
	C207.548935,133.646317 209.660385,132.215088 211.771835,130.783859 
	C211.574097,130.106064 211.376343,129.428284 211.178604,128.750504 
	C208.497025,128.515564 205.815445,128.280640 203.014328,128.852219 
z"/>
<path fill="#F175A1" opacity="1.000000" stroke="none" 
	d="
M425.017914,128.022797 
	C423.591400,129.138168 422.203186,130.307144 420.731750,131.359726 
	C414.169647,136.053848 407.965851,134.113937 405.473816,126.426224 
	C404.410736,123.146637 403.871582,119.697197 402.807861,115.081856 
	C400.604645,118.379349 399.012512,120.773857 397.408264,123.160248 
	C395.459686,126.058868 393.688721,129.101715 391.507385,131.813919 
	C386.975586,137.448654 384.418091,137.106857 381.589569,131.119171 
	C378.621002,134.245407 375.862579,137.868835 372.408997,140.619354 
	C367.198486,144.769135 361.759827,143.029144 360.972687,136.512314 
	C360.189789,130.030014 361.202271,123.326019 361.490723,116.722000 
	C361.582733,114.615570 361.877014,112.517975 362.134277,109.837570 
	C360.793091,110.351265 360.091248,110.664085 359.362427,110.889839 
	C357.962799,111.323357 356.547913,111.707489 355.139343,112.112091 
	C355.338409,110.483429 354.941010,108.204529 355.860443,107.361160 
	C357.787628,105.593361 361.099823,102.995720 362.576630,103.640411 
	C364.646790,104.544136 366.440674,107.981979 366.759613,110.534859 
	C367.199768,114.057892 366.121063,117.763077 365.755615,121.396545 
	C365.406982,124.862328 364.873322,128.341766 364.945984,131.804199 
	C364.982819,133.559845 366.177185,135.291183 366.848236,137.033524 
	C368.677612,136.176804 371.083282,135.792938 372.239532,134.383865 
	C378.161072,127.167633 383.750732,119.701164 384.116821,109.738754 
	C384.183258,107.931602 384.616150,106.098732 385.159851,104.365562 
	C385.414978,103.552284 386.480865,102.287445 386.924377,102.385101 
	C387.868530,102.593002 389.216003,103.441460 389.377930,104.235458 
	C389.762878,106.122849 389.870728,108.188683 389.527557,110.080276 
	C388.401703,116.285995 387.024841,122.446182 385.744446,128.623871 
	C386.303711,128.869720 386.862946,129.115570 387.422180,129.361435 
	C388.935425,127.373055 390.531494,125.441582 391.944794,123.384544 
	C394.960266,118.995644 397.780579,114.468857 400.904572,110.160797 
	C401.786285,108.944916 403.443359,108.291298 404.744812,107.379791 
	C405.533264,108.905632 406.607086,110.352921 407.053009,111.973045 
	C408.108276,115.806847 408.496643,119.854507 409.826599,123.575539 
	C411.988708,129.624954 415.710663,130.455719 420.348145,125.953552 
	C424.024353,122.384598 426.785797,118.352142 428.483185,113.134827 
	C430.694519,106.337776 434.126129,99.754784 438.076630,93.768646 
	C440.868805,89.537682 446.014069,88.931831 450.712891,91.241974 
	C455.156219,93.426521 457.136261,97.437737 456.930511,102.320259 
	C456.882141,103.467522 455.726654,104.568115 455.080505,105.690186 
	C454.363922,104.723801 453.143799,103.815971 453.023376,102.780266 
	C452.632996,99.423347 451.995514,96.351456 448.042297,95.739113 
	C443.798187,95.081711 440.596222,96.746674 438.545319,100.604782 
	C432.894745,111.234573 429.757202,122.519852 429.992218,134.590759 
	C430.025085,136.278442 431.457977,137.938858 432.242798,139.611908 
	C433.802948,138.587250 436.159668,137.911972 436.788208,136.478760 
	C439.852234,129.492340 442.343262,122.256798 445.293701,115.216972 
	C446.085266,113.328217 447.778503,111.817352 449.057831,110.133018 
	C449.948608,112.136833 451.314606,114.068062 451.633972,116.159157 
	C452.359558,120.909637 452.366302,125.770615 453.107544,130.517609 
	C453.348999,132.063797 454.768402,134.312531 455.999939,134.571533 
	C457.263702,134.837311 459.510284,133.420883 460.357727,132.112854 
	C462.872375,128.231537 464.803833,123.977051 467.199677,120.011238 
	C467.898865,118.853836 469.389984,118.174835 470.518097,117.276550 
	C470.825012,118.731041 471.838501,120.538559 471.318237,121.579735 
	C468.882965,126.453835 466.522339,131.523682 463.114349,135.688324 
	C461.337189,137.860046 457.075714,139.750381 454.621368,139.116302 
	C452.238892,138.500778 450.363586,134.680222 448.963654,131.913879 
	C447.928223,129.867783 448.012726,127.254906 447.419586,123.876656 
	C445.986084,127.472435 445.108917,130.303558 443.762421,132.890381 
	C442.087219,136.108688 440.477448,139.581009 437.972198,142.071121 
	C436.258698,143.774292 432.809967,145.058624 430.608978,144.537369 
	C428.745636,144.096085 426.902069,140.987579 426.233856,138.711731 
	C425.316895,135.588760 425.518250,132.137436 425.281860,128.410065 
	C425.221527,128.003159 425.119720,128.012985 425.017914,128.022797 
z"/>
<path fill="#F176A1" opacity="1.000000" stroke="none" 
	d="
M138.602417,122.596451 
	C137.700073,140.514267 136.834106,157.979752 141.058121,175.172989 
	C141.628540,177.494812 143.238495,179.547287 143.955704,181.852478 
	C144.360443,183.153336 143.925247,184.715530 143.868393,186.160004 
	C142.447281,185.703232 140.082016,185.596741 139.761093,184.731766 
	C137.930298,179.797394 135.809631,174.772629 135.209839,169.613235 
	C132.393539,145.387329 133.397385,121.143280 135.817780,96.931915 
	C135.964020,95.468979 135.836761,93.978691 135.836761,91.535500 
	C132.409119,92.750877 129.461777,94.018356 126.388885,94.777924 
	C125.129433,95.089233 123.598877,94.303703 122.191643,94.017128 
	C122.974991,92.939507 123.655258,91.760101 124.580772,90.822868 
	C125.126167,90.270576 126.039520,89.867119 126.823090,89.797272 
	C135.989639,88.980095 137.561096,82.821533 138.016708,75.081116 
	C138.756744,62.508598 140.174316,49.975960 141.362137,36.802849 
	C130.722900,38.465782 121.005470,42.445362 112.057465,48.262356 
	C112.210861,49.011921 112.187744,49.388870 112.355171,49.637547 
	C113.435768,51.242664 114.557983,52.819763 115.666542,54.406059 
	C113.195374,54.527515 110.334061,55.452980 108.381577,54.505535 
	C106.927696,53.800037 105.448410,50.082832 106.102661,48.744083 
	C107.406219,46.076698 109.764603,43.131290 112.403397,42.052532 
	C121.903290,38.168926 131.460602,33.644283 141.440506,31.891447 
	C158.253708,28.938435 175.399048,27.843170 192.424042,26.162840 
	C195.179703,25.890862 198.090286,26.392563 200.819275,27.017170 
	C201.998978,27.287180 202.899139,28.778484 203.926285,29.715012 
	C202.575684,30.252670 201.258377,31.096231 199.865738,31.247883 
	C198.250443,31.423784 196.572617,30.928196 194.915680,30.834162 
	C179.858673,29.979643 165.042206,31.996868 150.329071,34.855598 
	C148.832626,35.146355 146.637222,36.914219 146.472931,38.212597 
	C144.538177,53.502625 142.929321,68.833893 141.144302,84.970810 
	C146.311966,84.490959 150.514664,84.042671 154.727325,83.728073 
	C158.042206,83.480530 161.379883,83.190781 164.685272,83.357994 
	C165.793808,83.414078 166.834000,84.821297 167.905441,85.610931 
	C166.813934,86.376137 165.782104,87.688721 164.620972,87.815292 
	C158.350220,88.498856 152.054382,89.048203 145.753189,89.321999 
	C141.709625,89.497704 140.460342,91.641426 140.270370,95.238747 
	C139.796783,104.206749 139.205536,113.168526 138.602417,122.596451 
z"/>
<path fill="#D37918" opacity="1.000000" stroke="none" 
	d="
M112.744949,181.977188 
	C112.804352,182.754196 112.863762,183.531204 112.422104,184.673599 
	C108.159157,186.044128 103.640053,181.292648 100.500267,186.285645 
	C98.348862,189.706863 96.719627,193.456436 94.853119,197.066681 
	C104.526566,201.255951 104.516304,201.247238 110.780594,193.864349 
	C111.170662,193.404633 111.915314,193.245773 112.495010,192.946945 
	C112.351021,197.032608 112.207031,201.118286 111.539612,205.609833 
	C105.866814,205.158249 105.474609,209.606567 103.730972,212.547592 
	C102.832367,211.669296 101.933762,210.791016 101.008209,209.243454 
	C101.571526,207.302979 102.161804,206.031799 102.991623,204.244751 
	C100.448158,203.773056 98.277367,203.370453 96.106567,202.967865 
	C94.431854,200.914383 92.757141,198.860901 91.058746,196.113129 
	C92.709839,192.220978 94.615074,189.113892 95.930603,185.774475 
	C96.373093,184.651260 95.614861,181.865280 94.897118,181.665512 
	C89.782242,180.241913 84.709785,177.444016 79.160019,180.006409 
	C77.967583,177.977280 76.775139,175.948151 75.916153,173.516388 
	C77.829010,172.072021 79.408424,171.030289 80.992767,169.993423 
	C80.997704,169.998291 80.988174,169.986908 81.293686,169.838074 
	C84.520767,165.213577 87.442345,160.737930 90.805305,155.586090 
	C88.052368,155.222946 86.392883,155.233871 84.882446,154.764832 
	C78.503487,152.783859 72.584419,151.768448 69.506493,159.863525 
	C69.148407,160.805298 67.799606,161.370407 66.910126,162.110153 
	C66.246483,161.319580 65.582848,160.529022 65.141068,159.238434 
	C66.561119,156.848587 67.759315,154.958771 69.409111,152.356674 
	C65.363266,151.837280 62.165489,151.426758 58.967716,151.016235 
	C57.767654,149.544479 56.567593,148.072723 55.662140,146.307159 
	C57.650005,146.300003 59.343258,146.586670 61.361664,146.912354 
	C62.123184,146.969284 62.559551,146.987228 63.282921,147.292511 
	C66.616104,147.451553 70.908592,148.537964 72.456734,146.949570 
	C76.004784,143.309280 78.213470,138.363556 81.079857,133.765152 
	C78.306679,133.090332 76.148445,132.565140 74.163177,131.772278 
	C74.906929,130.676300 75.477699,129.848007 76.305634,129.008804 
	C76.734192,128.989700 76.905594,128.981491 77.503830,128.979172 
	C81.099892,128.656265 85.388382,130.606079 86.242584,125.021751 
	C86.679222,125.005074 86.853844,124.997551 87.425148,124.993591 
	C88.879456,124.996788 89.937073,124.996422 90.964554,125.347931 
	C90.369133,126.838242 89.803856,127.976677 89.249153,129.093811 
	C96.897194,133.728119 105.663391,132.802734 110.822647,126.973900 
	C110.958519,130.337387 111.094391,133.700882 110.761620,137.523529 
	C106.064125,142.436295 101.835281,146.889908 96.855957,152.133896 
	C103.144493,153.665359 107.874565,154.817291 112.604645,155.969223 
	C112.719048,158.373428 112.833450,160.777634 112.624115,163.856964 
	C109.803093,169.357559 107.305809,174.183014 104.644051,179.326279 
	C107.815063,180.363953 110.280006,181.170563 112.744949,181.977188 
M87.987137,167.524185 
	C86.702499,169.760223 85.417870,171.996277 83.868942,174.692352 
	C89.139427,175.856277 93.784622,176.956512 98.470467,177.841537 
	C99.225143,177.984070 100.579033,177.405029 100.947441,176.756866 
	C104.106720,171.198456 107.102852,165.547302 110.243042,159.747864 
	C108.977318,159.329514 108.501274,159.206024 108.051857,159.018677 
	C98.887650,155.198425 92.174255,157.382339 87.987137,167.524185 
M100.528076,140.986420 
	C101.276772,139.587601 102.025467,138.188797 103.080742,136.217194 
	C97.666389,135.487366 92.821991,134.791092 87.962280,134.226807 
	C87.248970,134.144012 86.139221,134.455429 85.761513,134.979691 
	C82.710518,139.214523 79.790787,143.543915 76.170746,148.803787 
	C82.544502,149.979538 87.782394,150.945770 93.019844,151.911911 
	C95.478271,148.378357 97.827576,145.001648 100.528076,140.986420 
z"/>
<path fill="#EB9805" opacity="1.000000" stroke="none" 
	d="
M110.873352,126.525925 
	C105.663391,132.802734 96.897194,133.728119 89.249153,129.093811 
	C89.803856,127.976677 90.369133,126.838242 91.260788,125.178131 
	C94.873940,115.964378 101.473251,113.518089 110.076576,114.850403 
	C110.359070,118.592918 110.641563,122.335426 110.873352,126.525925 
z"/>
<path fill="#EB9802" opacity="1.000000" stroke="none" 
	d="
M61.036507,146.873352 
	C59.343258,146.586670 57.650005,146.300003 55.587296,145.996765 
	C54.902679,145.757843 54.587517,145.535477 54.198784,144.695770 
	C55.427589,140.730515 56.729965,137.382599 58.022305,134.024933 
	C58.012268,134.015182 58.025150,134.024185 58.245087,133.915802 
	C58.735054,133.598465 58.909065,133.327759 59.282318,132.698761 
	C64.381798,132.281433 69.186005,132.160690 73.990211,132.039948 
	C76.148445,132.565140 78.306679,133.090332 81.079857,133.765152 
	C78.213470,138.363556 76.004784,143.309280 72.456734,146.949570 
	C70.908592,148.537964 66.616104,147.451553 63.549194,147.008209 
	C71.199303,145.337036 71.199303,145.337036 71.010719,140.772202 
	C68.868134,141.497147 66.671112,142.766312 64.418930,142.873199 
	C61.412853,143.015900 60.729843,144.325867 61.036507,146.873352 
z"/>
<path fill="#EC9703" opacity="1.000000" stroke="none" 
	d="
M66.971222,162.427856 
	C67.799606,161.370407 69.148407,160.805298 69.506493,159.863525 
	C72.584419,151.768448 78.503487,152.783859 84.882446,154.764832 
	C86.392883,155.233871 88.052368,155.222946 90.805305,155.586090 
	C87.442345,160.737930 84.520767,165.213577 81.293274,169.435577 
	C80.835220,167.858917 80.683090,166.535904 80.525238,165.163101 
	C77.185501,166.284760 74.422760,167.212631 71.660019,168.140503 
	C70.117455,166.342194 68.574890,164.543869 66.971222,162.427856 
z"/>
<path fill="#EB9805" opacity="1.000000" stroke="none" 
	d="
M112.635391,192.530045 
	C111.915314,193.245773 111.170662,193.404633 110.780594,193.864349 
	C104.516304,201.247238 104.526566,201.255951 94.853119,197.066681 
	C96.719627,193.456436 98.348862,189.706863 100.500267,186.285645 
	C103.640053,181.292648 108.159157,186.044128 112.334763,185.055817 
	C112.757584,187.419464 112.766678,189.766312 112.635391,192.530045 
z"/>
<path fill="#B85E11" opacity="1.000000" stroke="none" 
	d="
M110.139351,114.452805 
	C101.473251,113.518089 94.873940,115.964378 91.290924,124.826256 
	C89.937073,124.996422 88.879456,124.996788 87.559372,124.677124 
	C89.506065,120.571121 91.715225,116.785156 94.211166,112.507706 
	C90.414108,111.562180 87.188675,110.758995 83.963249,109.955811 
	C85.208824,109.598900 86.446091,108.969139 87.701370,108.930893 
	C94.150726,108.734421 99.568703,106.220589 104.620308,102.263031 
	C102.643745,109.916451 102.643745,109.916451 109.826561,110.023270 
	C109.951752,111.367249 110.076935,112.711235 110.139351,114.452805 
z"/>
<path fill="#B65E0E" opacity="1.000000" stroke="none" 
	d="
M74.163177,131.772278 
	C69.186005,132.160690 64.381798,132.281433 59.062416,132.807541 
	C58.271336,133.417755 58.097305,133.688187 58.025150,134.024185 
	C58.025150,134.024185 58.012268,134.015182 57.643738,134.009445 
	C56.519020,134.001053 55.762836,133.998398 54.989685,133.599808 
	C54.299870,132.480148 53.716431,131.259964 52.938461,131.119827 
	C49.806026,130.555634 46.613480,130.325180 43.443138,129.971436 
	C42.889454,128.909760 42.335773,127.848083 42.214287,126.406296 
	C44.123020,126.014282 45.744938,125.592667 47.052597,126.056671 
	C55.823498,129.168930 59.538605,124.185890 61.990364,117.008125 
	C63.317425,117.345009 64.644485,117.681892 65.901138,118.706734 
	C65.258781,120.189850 64.613121,120.942574 64.126953,121.787117 
	C61.167091,126.928741 61.727383,127.833679 67.525154,128.044159 
	C70.374313,128.147583 73.207863,128.680923 76.048477,129.019714 
	C75.477699,129.848007 74.906929,130.676300 74.163177,131.772278 
z"/>
<path fill="#EC9C09" opacity="1.000000" stroke="none" 
	d="
M79.200714,180.342865 
	C84.709785,177.444016 89.782242,180.241913 94.897118,181.665512 
	C95.614861,181.865280 96.373093,184.651260 95.930603,185.774475 
	C94.615074,189.113892 92.709839,192.220978 90.977356,195.787552 
	C87.026894,190.997269 83.134148,185.838303 79.200714,180.342865 
z"/>
<path fill="#EC9C09" opacity="1.000000" stroke="none" 
	d="
M112.657379,155.521393 
	C107.874565,154.817291 103.144493,153.665359 96.855957,152.133896 
	C101.835281,146.889908 106.064125,142.436295 110.663742,137.972580 
	C111.593048,143.666168 112.151581,149.369873 112.657379,155.521393 
z"/>
<path fill="#CA7304" opacity="1.000000" stroke="none" 
	d="
M61.564247,116.948853 
	C59.538605,124.185890 55.823498,129.168930 47.052597,126.056671 
	C45.744938,125.592667 44.123020,126.014282 42.167221,126.048828 
	C40.886955,123.888351 40.085960,121.705223 39.126980,119.253754 
	C39.109726,118.688866 39.370697,118.130882 39.374256,118.132523 
	C46.200706,121.272530 52.625790,118.105629 59.174454,116.915886 
	C59.809639,116.800484 60.482670,116.893372 61.564247,116.948853 
z"/>
<path fill="#EB9809" opacity="1.000000" stroke="none" 
	d="
M112.833000,181.518997 
	C110.280006,181.170563 107.815063,180.363953 104.644051,179.326279 
	C107.305809,174.183014 109.803093,169.357559 112.541092,164.302704 
	C112.828232,169.735794 112.874641,175.398300 112.833000,181.518997 
z"/>
<path fill="#EC9C16" opacity="1.000000" stroke="none" 
	d="
M103.873581,212.835861 
	C105.474609,209.606567 105.866814,205.158249 111.405434,206.022186 
	C111.794701,210.011856 111.794701,213.995056 111.794701,217.978241 
	C111.195717,218.169037 110.596741,218.359818 109.997757,218.550613 
	C108.003906,216.741776 106.010056,214.932953 103.873581,212.835861 
z"/>
<path fill="#CB760A" opacity="1.000000" stroke="none" 
	d="
M109.880173,109.565506 
	C102.643745,109.916451 102.643745,109.916451 104.968224,102.191071 
	C106.231949,100.623260 107.503746,99.454758 109.046730,98.233894 
	C109.523209,101.823601 109.728493,105.465668 109.880173,109.565506 
z"/>
<path fill="#EB9809" opacity="1.000000" stroke="none" 
	d="
M59.069572,151.341644 
	C62.165489,151.426758 65.363266,151.837280 69.409111,152.356674 
	C67.759315,154.958771 66.561119,156.848587 65.062424,158.931854 
	C62.898422,156.639206 61.034924,154.153122 59.069572,151.341644 
z"/>
<path fill="#D37918" opacity="1.000000" stroke="none" 
	d="
M55.006649,133.995728 
	C55.762836,133.998398 56.519020,134.001053 57.653774,134.019196 
	C56.729965,137.382599 55.427589,140.730515 54.090706,144.423401 
	C52.957485,143.481628 51.858768,142.194870 50.995884,140.384644 
	C51.823700,138.221283 52.415684,136.581390 53.182827,134.708282 
	C53.907539,134.315308 54.457096,134.155518 55.006649,133.995728 
z"/>
<path fill="#CF7E0B" opacity="1.000000" stroke="none" 
	d="
M54.989685,133.599792 
	C54.457096,134.155518 53.907539,134.315308 52.768745,134.724518 
	C50.281441,134.707092 48.383373,134.440216 46.485306,134.173340 
	C45.507401,132.963516 44.529503,131.753693 43.497368,130.257660 
	C46.613480,130.325180 49.806026,130.555634 52.938461,131.119827 
	C53.716431,131.259964 54.299870,132.480148 54.989685,133.599792 
z"/>
<path fill="#EFA912" opacity="1.000000" stroke="none" 
	d="
M71.754639,168.464645 
	C74.422760,167.212631 77.185501,166.284760 80.525238,165.163101 
	C80.683090,166.535904 80.835220,167.858917 80.987762,169.584412 
	C80.988174,169.986908 80.997704,169.998291 80.600952,169.994629 
	C78.394081,170.777679 76.583954,171.564407 74.773819,172.351135 
	C73.798965,171.163681 72.824112,169.976242 71.754639,168.464645 
z"/>
<path fill="#EC9C16" opacity="1.000000" stroke="none" 
	d="
M96.133720,203.307678 
	C98.277367,203.370453 100.448158,203.773056 102.991623,204.244751 
	C102.161804,206.031799 101.571526,207.302979 100.902267,208.943298 
	C99.269142,207.424118 97.715004,205.535797 96.133720,203.307678 
z"/>
<path fill="#EC9C16" opacity="1.000000" stroke="none" 
	d="
M46.596252,134.506165 
	C48.383373,134.440216 50.281441,134.707092 52.593590,134.957733 
	C52.415684,136.581390 51.823700,138.221283 50.906307,140.066849 
	C49.289665,138.461334 47.998432,136.650162 46.596252,134.506165 
z"/>
<path fill="#EC9703" opacity="1.000000" stroke="none" 
	d="
M74.809387,172.537262 
	C76.583954,171.564407 78.394081,170.777679 80.596024,169.989746 
	C79.408424,171.030289 77.829010,172.072021 75.822853,173.163101 
	C75.136147,173.135361 74.952423,172.972336 74.809387,172.537262 
z"/>
<path fill="#D46382" opacity="1.000000" stroke="none" 
	d="
M68.594528,105.717926 
	C58.720135,109.768318 49.114784,113.614868 38.770710,108.992821 
	C36.514847,107.984825 34.368679,106.123512 32.920338,104.115440 
	C31.832903,102.607765 31.944395,100.235344 31.522133,98.247902 
	C33.705837,97.900620 36.173733,96.715515 38.026463,97.343964 
	C48.888466,101.028412 59.682491,104.589272 71.401482,102.032906 
	C71.950378,101.913177 72.584694,102.185020 74.634430,102.493515 
	C71.961647,103.924469 70.446243,104.735794 68.594528,105.717926 
z"/>
<path fill="#C97306" opacity="1.000000" stroke="none" 
	d="
M76.305634,129.008804 
	C73.207863,128.680923 70.374313,128.147583 67.525154,128.044159 
	C61.727383,127.833679 61.167091,126.928741 64.126953,121.787117 
	C64.613121,120.942574 65.258781,120.189850 65.995911,119.061646 
	C66.602386,119.223503 67.084274,119.688286 67.477814,120.218620 
	C69.026390,122.305473 70.454048,125.601013 73.493103,123.790283 
	C75.023590,122.878380 75.643776,119.688431 75.846321,117.453438 
	C76.274261,112.731239 79.257240,110.957108 83.592331,109.945755 
	C87.188675,110.758995 90.414108,111.562180 94.211166,112.507706 
	C91.715225,116.785156 89.506065,120.571121 87.162689,124.673553 
	C86.853844,124.997551 86.679222,125.005074 85.807053,125.013557 
	C82.209236,125.882111 77.248306,122.568550 77.076996,128.973297 
	C76.905594,128.981491 76.734192,128.989700 76.305634,129.008804 
z"/>
<path fill="#D56383" opacity="1.000000" stroke="none" 
	d="
M36.926315,70.982971 
	C48.634361,75.622627 60.659142,73.195213 72.375870,73.716293 
	C72.420952,74.214836 72.466026,74.713379 72.511101,75.211929 
	C70.900070,75.823097 69.335068,76.644432 67.670052,77.009102 
	C60.416000,78.597847 53.190094,80.593658 45.840656,81.372787 
	C40.732578,81.914291 35.085293,81.579018 31.404095,76.812569 
	C30.312893,75.399673 29.967777,73.410568 29.280781,71.685501 
	C31.024879,71.422752 32.764957,71.126892 34.515160,70.914429 
	C35.166294,70.835388 35.841122,70.951538 36.926315,70.982971 
z"/>
<path fill="#EE94B5" opacity="1.000000" stroke="none" 
	d="
M92.087677,78.889572 
	C96.676170,80.960403 100.884468,82.934807 105.092758,84.909210 
	C93.854645,88.110649 67.670807,87.841736 62.553131,85.078125 
	C64.879005,83.994698 66.587341,82.736946 68.458992,82.407791 
	C76.181541,81.049698 83.953598,79.973167 92.087677,78.889572 
z"/>
<path fill="#EE94B5" opacity="1.000000" stroke="none" 
	d="
M69.476730,58.683083 
	C65.310463,58.472858 61.524590,58.277317 57.808445,57.661198 
	C56.798496,57.493752 55.998859,56.057785 55.102692,55.204018 
	C55.808010,54.482407 56.471581,53.183823 57.225170,53.129299 
	C64.042122,52.636047 70.916817,51.768368 77.686783,52.248531 
	C81.596718,52.525845 85.345116,55.080967 89.166214,56.610901 
	C88.986603,57.253780 88.806984,57.896656 88.627373,58.539536 
	C82.379372,58.539536 76.131371,58.539536 69.476730,58.683083 
z"/>
<path fill="#D56383" opacity="1.000000" stroke="none" 
	d="
M21.705015,51.267380 
	C20.445030,49.137150 19.451715,47.261639 18.458401,45.386131 
	C20.405895,45.233341 22.375032,44.817177 24.296995,44.975105 
	C31.197872,45.542137 38.078587,46.350788 44.976311,46.962234 
	C47.068932,47.147732 49.191891,46.990967 51.347080,46.990967 
	C51.288982,47.847610 51.335155,48.386078 51.238869,48.412888 
	C43.459110,50.579098 35.723206,52.967300 27.833801,54.623173 
	C26.170012,54.972374 23.940517,52.626278 21.705015,51.267380 
z"/>
<path fill="#EE92B4" opacity="1.000000" stroke="none" 
	d="
M62.452957,32.078209 
	C65.920273,33.392700 68.953850,34.657021 71.987419,35.921341 
	C71.838509,36.336567 71.689606,36.751797 71.540695,37.167023 
	C61.886299,37.167023 52.231907,37.167023 42.577511,37.167023 
	C42.336239,36.587044 42.094971,36.007069 41.853703,35.427090 
	C42.995617,34.625450 44.079285,33.242989 45.289425,33.121624 
	C50.846684,32.564308 56.439289,32.359417 62.452957,32.078209 
z"/>
<path fill="#EE94B5" opacity="1.000000" stroke="none" 
	d="
M35.527081,22.678049 
	C31.780813,21.739166 28.354490,21.167141 25.116211,20.050030 
	C23.882519,19.624439 23.080353,17.947952 22.081520,16.841557 
	C23.380299,16.381577 24.646702,15.767148 25.983179,15.487024 
	C33.860634,13.835922 39.417858,17.848747 45.706047,23.980331 
	C41.548138,23.490511 38.735046,23.159115 35.527081,22.678049 
z"/>
<path fill="#D86788" opacity="1.000000" stroke="none" 
	d="
M33.379040,31.358795 
	C28.207321,33.006580 23.304766,34.958889 19.426329,29.823553 
	C18.589039,28.714924 18.424438,27.098249 17.889923,25.540558 
	C24.850981,27.077515 31.064791,28.449484 38.709694,30.137430 
	C36.272713,30.666903 35.018055,30.939497 33.379040,31.358795 
z"/>
<path fill="#D56383" opacity="1.000000" stroke="none" 
	d="
M54.461876,46.454285 
	C54.517200,46.421803 54.406555,46.486771 54.461876,46.454285 
z"/>
<path fill="#FEF8FA" opacity="1.000000" stroke="none" 
	d="
M196.361191,61.320610 
	C194.270767,74.351265 191.073502,86.599518 185.647598,98.882317 
	C183.291382,85.924728 191.588348,45.671829 198.498611,40.511070 
	C197.753784,48.016956 197.114655,54.457569 196.361191,61.320610 
z"/>
<path fill="#FEF8FA" opacity="1.000000" stroke="none" 
	d="
M358.383362,158.397369 
	C358.739777,158.848953 358.828522,159.020355 358.803406,159.173035 
	C358.220184,162.723251 359.386993,166.963593 354.951111,169.003067 
	C353.667114,165.684128 352.383118,162.365173 350.736298,158.108459 
	C354.213043,158.108459 356.137848,158.108459 358.383362,158.397369 
z"/>
<path fill="#FEF5F8" opacity="1.000000" stroke="none" 
	d="
M198.579330,111.957932 
	C203.389008,104.469872 208.356583,103.081932 211.951736,108.181160 
	C213.422699,110.267487 214.396591,112.979256 214.730438,115.520302 
	C215.117569,118.466888 214.552444,121.538605 214.376434,125.037628 
	C210.321045,124.017395 207.329971,123.264915 203.371460,122.269058 
	C204.764786,120.159843 205.811081,118.654411 206.771057,117.095818 
	C207.437805,116.013336 207.985809,114.857735 208.586853,113.734802 
	C207.049927,113.621048 205.022888,112.840454 204.079330,113.533974 
	C202.182693,114.928024 200.876953,117.126015 198.401566,120.107246 
	C198.401566,116.835915 198.401566,114.568100 198.579330,111.957932 
z"/>
<path fill="#FEF5F8" opacity="1.000000" stroke="none" 
	d="
M274.823608,111.836784 
	C271.972168,113.551323 269.394897,115.019730 265.880371,117.022163 
	C266.539490,109.836807 270.163818,106.159294 274.292664,102.915314 
	C275.129944,102.257484 277.360779,101.949318 277.740082,102.431366 
	C278.511292,103.411377 279.041962,105.272102 278.614777,106.351555 
	C277.858459,108.262558 276.312988,109.861259 274.823608,111.836784 
z"/>
<path fill="#FEF5F8" opacity="1.000000" stroke="none" 
	d="
M203.074097,128.448975 
	C205.815445,128.280640 208.497025,128.515564 211.178604,128.750504 
	C211.376343,129.428284 211.574097,130.106064 211.771835,130.783859 
	C209.660385,132.215088 207.548935,133.646317 205.437469,135.077560 
	C204.629761,133.002457 203.822052,130.927338 203.074097,128.448975 
z"/>
<path fill="#FFFEFE" opacity="1.000000" stroke="none" 
	d="
M425.006134,128.008896 
	C425.119720,128.012985 425.221527,128.003159 425.145508,127.981308 
	C424.967651,127.969292 424.994354,127.994987 425.006134,128.008896 
z"/>
<path fill="#EB9802" opacity="1.000000" stroke="none" 
	d="
M88.234894,167.257339 
	C92.174255,157.382339 98.887650,155.198425 108.051857,159.018677 
	C108.501274,159.206024 108.977318,159.329514 110.243042,159.747864 
	C107.102852,165.547302 104.106720,171.198456 100.947441,176.756866 
	C100.579033,177.405029 99.225143,177.984070 98.470467,177.841537 
	C93.784622,176.956512 89.139427,175.856277 83.868942,174.692352 
	C85.417870,171.996277 86.702499,169.760223 88.234894,167.257339 
z"/>
<path fill="#EB9802" opacity="1.000000" stroke="none" 
	d="
M100.352478,141.305679 
	C97.827576,145.001648 95.478271,148.378357 93.019844,151.911911 
	C87.782394,150.945770 82.544502,149.979538 76.170746,148.803787 
	C79.790787,143.543915 82.710518,139.214523 85.761513,134.979691 
	C86.139221,134.455429 87.248970,134.144012 87.962280,134.226807 
	C92.821991,134.791092 97.666389,135.487366 103.080742,136.217194 
	C102.025467,138.188797 101.276772,139.587601 100.352478,141.305679 
z"/>
<path fill="#EFA605" opacity="1.000000" stroke="none" 
	d="
M61.361664,146.912354 
	C60.729843,144.325867 61.412853,143.015900 64.418930,142.873199 
	C66.671112,142.766312 68.868134,141.497147 71.010719,140.772202 
	C71.199303,145.337036 71.199303,145.337036 63.262196,146.720856 
	C62.559551,146.987228 62.123184,146.969284 61.361664,146.912354 
z"/>
<path fill="#EB9805" opacity="1.000000" stroke="none" 
	d="
M77.503830,128.979172 
	C77.248306,122.568550 82.209236,125.882111 85.545029,125.022705 
	C85.388382,130.606079 81.099892,128.656265 77.503830,128.979172 
z"/>
<path fill="#D37918" opacity="1.000000" stroke="none" 
	d="
M58.245087,133.915802 
	C58.097305,133.688187 58.271336,133.417755 58.767143,133.104126 
	C58.909065,133.327759 58.735054,133.598465 58.245087,133.915802 
z"/>
</svg>